<svg version="1.1" id="Layer_1" xmlns="http://www.w3.org/2000/svg" xmlns:xlink="http://www.w3.org/1999/xlink" x="0px" y="0px"
	 width="100%" viewBox="0 0 500 500" enable-background="new 0 0 500 500" xml:space="preserve">
<path fill="none" opacity="1.000000" stroke="none" 
	d="
M340.000000,501.000000 
	C226.666687,501.000000 113.833389,501.000000 1.000061,501.000000 
	C1.000040,334.333405 1.000040,167.666794 1.000020,1.000150 
	C167.666565,1.000100 334.333130,1.000100 500.999756,1.000050 
	C500.999847,167.666519 500.999847,334.333038 500.999939,500.999786 
	C447.500000,501.000000 394.000000,501.000000 340.000000,501.000000 
M374.101379,323.997192 
	C371.783966,323.955261 369.466583,323.913330 367.046692,323.034058 
	C367.046692,320.871246 367.046692,318.708435 367.046692,316.545624 
	C366.626495,316.542084 366.206299,316.538574 365.786102,316.535065 
	C365.235046,317.550385 364.683990,318.565704 364.011902,319.803986 
	C363.080200,318.243622 362.408630,317.118927 360.996185,314.753448 
	C360.996185,318.750671 360.996185,321.276764 360.326874,323.960114 
	C359.877747,323.894226 359.428650,323.828369 358.834717,323.436371 
	C358.694916,323.231262 358.506348,323.092285 358.077454,322.157104 
	C358.001770,320.099731 357.926086,318.042389 357.917328,315.441376 
	C357.609131,315.383606 357.300934,315.325867 356.124664,315.142975 
	C354.062317,315.112946 351.999939,315.082886 349.763184,314.200592 
	C349.779755,311.901093 349.796326,309.601624 349.968964,306.358185 
	C349.968964,303.749023 349.968964,301.139832 349.968964,298.184540 
	C346.562897,298.184540 343.623169,298.184540 339.843445,298.191315 
	C337.313416,298.057556 334.783386,297.923828 332.410065,296.932953 
	C332.293457,294.606110 332.176819,292.279297 331.998718,289.995880 
	C331.998718,289.995880 332.064728,289.962036 332.910706,290.244812 
	C335.343414,290.090363 337.776154,289.935913 340.208862,289.781494 
	C340.198669,289.579742 340.188477,289.378021 340.178284,289.176300 
	C337.930573,289.033813 335.682892,288.891327 333.613708,288.760162 
	C333.036896,285.950256 332.531891,283.490112 331.149261,281.004303 
	C328.844208,280.966675 326.539185,280.929047 324.077759,279.980408 
	C324.050659,231.979858 324.023560,183.979324 323.525452,135.318436 
	C321.020966,135.122345 318.516479,134.926254 316.006165,133.920807 
	C315.663391,131.599930 315.320618,129.279053 314.545105,126.213905 
	C314.052338,126.144463 313.559570,126.014244 313.066803,126.014175 
	C246.576035,126.004700 180.085281,125.999825 113.594536,126.043640 
	C112.404549,126.044426 111.214951,126.633965 110.006912,127.836464 
	C110.002289,130.198975 109.997665,132.561493 109.327866,134.958496 
	C108.884003,134.972031 108.440132,134.985565 107.238647,135.085068 
	C105.493462,135.389465 103.748276,135.693848 101.396645,136.576233 
	C101.264389,137.553940 101.016914,138.531570 101.016457,139.509354 
	C100.996201,182.624741 100.988266,225.740143 101.039536,268.855469 
	C101.041191,270.239838 101.676292,271.623383 102.855438,273.003571 
	C104.755463,273.006256 106.655487,273.008942 108.750793,273.062286 
	C108.750793,273.062286 108.943680,273.003143 108.979782,273.939301 
	C108.981453,283.417786 108.940323,292.896698 109.028442,302.374390 
	C109.042542,303.890808 109.635368,305.401825 110.822906,306.973267 
	C113.545113,307.283325 116.267319,307.593414 118.995789,308.812622 
	C118.995789,311.073120 118.995789,313.333618 118.995789,316.410675 
	C121.954048,315.813232 123.992363,315.401550 126.249161,315.412292 
	C126.442871,315.675934 126.693092,315.864655 126.998901,316.872803 
	C126.998901,319.120605 126.998901,321.368408 126.998901,323.966522 
	C129.890793,323.966522 131.968109,323.966522 134.553268,324.147583 
	C135.030396,324.391968 135.507538,324.636353 135.994324,325.800354 
	C136.110626,333.559387 134.939972,332.972687 143.021942,332.997223 
	C143.349777,332.998230 143.677628,332.988434 144.001663,332.998627 
	C144.001663,332.998627 144.016190,332.993896 143.999008,333.861389 
	C144.012878,340.778168 144.192078,340.956848 151.599396,341.163727 
	C152.061996,341.422333 152.524597,341.680908 152.994736,342.846466 
	C153.010071,350.038116 153.010071,350.038116 160.657288,350.524261 
	C161.083649,353.338226 161.510010,356.152191 162.739532,358.992493 
	C165.151794,359.004364 167.564056,359.016235 169.989304,359.920685 
	C170.016953,367.013794 170.016953,367.013916 177.055161,366.995728 
	C177.380783,366.994873 177.706390,366.988800 178.513977,367.021179 
	C178.513977,367.021179 178.992508,367.088745 178.995819,367.944946 
	C178.994217,370.223297 178.992615,372.501617 178.469971,375.301941 
	C179.527222,375.533142 180.584366,375.966248 181.641724,375.966705 
	C250.779541,375.996979 319.917389,375.997864 389.055176,375.947937 
	C390.374359,375.946960 391.693115,375.308838 393.006226,374.074829 
	C392.722656,369.931946 392.335419,365.814270 398.768158,366.778778 
	C399.327881,366.862701 400.822418,364.583954 400.895660,363.344391 
	C401.157593,358.911285 400.994202,354.453003 400.615845,349.279510 
	C398.069275,349.522003 395.522675,349.764465 393.002045,350.010559 
	C393.002045,350.010559 393.015350,349.987915 392.114227,349.865540 
	C389.542328,349.865540 386.970459,349.865540 383.938263,349.865540 
	C383.938263,346.597717 383.938263,343.876465 383.989166,340.241150 
	C383.997101,332.163788 384.851776,333.034637 376.656921,333.019104 
	C376.494324,333.018799 376.331696,333.025879 376.065491,332.147003 
	C375.701263,329.435150 375.337036,326.723267 374.101379,323.997192 
z"/>
<path fill="#010204" opacity="1.000000" stroke="none" 
	d="
M400.991760,350.004272 
	C400.994202,354.453003 401.157593,358.911285 400.895660,363.344391 
	C400.822418,364.583954 399.327881,366.862701 398.768158,366.778778 
	C392.335419,365.814270 392.722656,369.931946 392.540833,374.482300 
	C326.366791,374.915222 260.658173,374.945099 194.949570,374.957825 
	C189.630066,374.958862 184.310532,374.842041 178.991013,374.779968 
	C178.992615,372.501617 178.994217,370.223297 179.443787,367.479523 
	C182.297379,366.943512 184.703003,366.872925 187.565475,366.850220 
	C217.182770,366.907837 246.343231,366.926392 275.503662,366.903992 
	C277.146881,366.902740 278.789825,366.565094 280.682892,366.538940 
	C281.314117,366.693451 281.695343,366.693085 282.472565,366.774323 
	C283.943054,366.812714 285.017517,366.769501 286.462402,366.831604 
	C287.857300,366.837158 288.881775,366.737396 290.355469,366.729614 
	C293.553589,366.832428 296.302521,366.843231 299.483826,366.874634 
	C302.207611,366.825134 304.499054,366.755005 307.265442,366.766846 
	C335.645996,366.848877 363.551544,366.848877 391.707458,366.848877 
	C391.868683,364.577087 391.995819,362.786041 392.500366,361.004700 
	C394.382629,361.274048 395.887390,361.533722 397.883698,361.878204 
	C397.209747,358.114594 397.692535,354.399933 392.727051,353.604187 
	C392.732269,352.136841 392.873810,351.062378 393.015350,349.987915 
	C393.015350,349.987915 393.002045,350.010559 393.434265,350.033875 
	C396.241547,350.039520 398.616669,350.021912 400.991760,350.004272 
z"/>
<path fill="#FCFEFE" opacity="1.000000" stroke="none" 
	d="
M392.564789,349.926727 
	C392.873810,351.062378 392.732269,352.136841 392.593689,353.939819 
	C392.408600,355.810059 392.220581,356.951752 391.561859,358.087891 
	C363.045715,358.133179 335.000214,358.184021 306.521729,358.149231 
	C303.423950,358.123932 300.759155,358.184265 297.639038,358.167023 
	C294.761627,358.135773 292.339508,358.182068 289.484131,358.148254 
	C286.162811,358.110504 283.274780,358.152863 279.896759,358.138672 
	C248.609207,358.046631 217.811630,358.011139 186.964630,357.550781 
	C186.972626,355.419067 187.030060,353.712158 187.432358,351.960938 
	C189.192093,351.244873 190.606979,350.573120 192.488327,349.904602 
	C198.630249,349.911835 204.305695,349.915863 210.232666,350.213196 
	C212.662079,350.311310 214.839996,350.116119 217.485382,349.920990 
	C230.628372,349.920441 243.303879,349.919800 256.238373,350.216553 
	C259.090546,350.298218 261.683746,350.082489 264.697845,349.808868 
	C267.390930,349.679657 269.663116,349.608307 272.395782,349.646301 
	C284.259064,349.675781 295.661835,349.595978 307.482849,349.611084 
	C310.181580,349.725952 312.462067,349.745911 315.222656,349.833801 
	C332.125580,349.908569 348.548462,349.933838 364.971222,349.906128 
	C368.107574,349.900818 372.034241,350.760071 374.124054,349.221161 
	C375.731903,348.037201 375.028687,343.714813 375.774841,340.851868 
	C378.777130,340.995514 381.357697,341.075378 383.938263,341.155212 
	C383.938263,343.876465 383.938263,346.597717 383.938263,349.865540 
	C386.970459,349.865540 389.542328,349.865540 392.564789,349.926727 
z"/>
<path fill="#010105" opacity="1.000000" stroke="none" 
	d="
M109.993042,134.924011 
	C109.997665,132.561493 110.002289,130.198975 110.480957,127.438187 
	C178.962616,127.012657 246.970230,126.985413 314.977844,126.958168 
	C315.320618,129.279053 315.663391,131.599930 315.692017,134.412064 
	C315.176849,134.989792 314.975861,135.076248 314.321777,135.185577 
	C248.722046,135.240936 183.575439,135.273407 117.962448,135.228439 
	C114.995064,135.075317 112.494049,134.999664 109.993042,134.924011 
z"/>
<path fill="#1F2933" opacity="1.000000" stroke="none" 
	d="
M187.087494,352.005280 
	C187.030060,353.712158 186.972626,355.419067 186.950195,357.998199 
	C187.026337,361.514404 187.067490,364.158356 187.108643,366.802307 
	C184.703003,366.872925 182.297379,366.943512 179.442123,367.051422 
	C178.992508,367.088745 178.513977,367.021179 178.263306,366.550049 
	C177.796158,357.779022 179.954010,357.778748 169.987152,357.649902 
	C169.990356,356.526733 169.966537,355.862457 169.998886,355.200897 
	C170.144623,352.221893 170.245728,349.759827 165.822052,349.814850 
	C161.607269,349.867310 161.873383,352.237976 161.956772,354.989105 
	C161.996918,356.313354 161.946045,357.640381 161.936386,358.966156 
	C161.510010,356.152191 161.083649,353.338226 160.511734,349.869385 
	C160.606018,346.694672 160.845871,344.174896 161.183823,340.624451 
	C157.875656,341.155212 155.431427,341.547363 152.987198,341.939514 
	C152.524597,341.680908 152.061996,341.422333 151.501556,340.695374 
	C153.067871,332.723297 151.447708,331.136993 144.016190,332.993896 
	C144.016190,332.993896 144.001663,332.998627 144.004761,332.538208 
	C144.007858,329.495697 144.007858,326.913635 144.007858,323.534363 
	C140.698105,324.089783 138.341400,324.485260 135.984680,324.880737 
	C135.507538,324.636353 135.030396,324.391968 134.466309,323.690796 
	C134.406448,320.715210 134.433533,318.196381 134.460602,315.677551 
	C131.973679,315.777863 129.486740,315.878174 126.999817,315.978455 
	C126.693092,315.864655 126.442871,315.675934 126.301514,314.833313 
	C126.369919,312.041138 126.385971,309.827972 126.402016,307.614777 
	C123.931183,307.711029 121.460350,307.807251 118.989517,307.903503 
	C116.267319,307.593414 113.545113,307.283325 110.412506,306.619049 
	C110.034187,305.831451 110.066261,305.398071 110.445648,305.163208 
	C113.000099,305.594482 115.207237,305.827240 118.353142,306.158997 
	C118.353142,300.054382 118.353142,294.776306 118.779030,289.522705 
	C121.776123,289.757080 124.347321,289.966980 126.941132,290.127167 
	C126.963730,290.077454 126.857628,290.051514 126.848991,290.507385 
	C126.840355,293.344421 126.840355,295.725586 126.840355,298.196533 
	C130.006989,298.196533 132.462265,298.196533 134.922638,298.130707 
	C134.927704,298.064880 134.797134,298.084473 134.945984,298.506439 
	C135.234634,301.511108 135.374466,304.093842 135.513412,306.660553 
	C138.667343,306.833801 141.313263,306.979156 143.970520,307.083374 
	C143.981842,307.042206 143.897186,307.031067 143.935684,307.483398 
	C143.974182,310.304779 143.974182,312.673859 143.974182,315.139954 
	C147.078888,315.139954 149.513367,315.139954 151.931488,315.086975 
	C151.915146,315.033966 151.816589,315.084869 151.996002,315.498810 
	C152.300476,318.466217 152.425537,321.019714 152.577377,324.120392 
	C155.527802,324.120392 158.240402,324.120392 160.956894,324.078308 
	C160.960785,324.036194 160.876633,324.044739 160.949615,324.484070 
	C161.022598,327.331177 161.022598,329.738892 161.022598,331.979919 
	C164.414322,332.457092 167.148193,332.841736 169.825867,333.430573 
	C169.769653,333.634766 169.984482,333.999756 169.879990,334.419525 
	C169.850876,336.559113 169.926254,338.278931 169.976074,340.286591 
	C170.297775,340.650482 170.645020,340.726532 171.424591,340.872040 
	C173.897186,340.990845 175.937469,341.040222 177.975769,341.052216 
	C177.973801,341.014862 177.900513,341.029816 177.978882,341.471863 
	C178.057266,344.430573 178.057266,346.947205 178.057266,349.549194 
	C181.184952,349.549194 183.586960,349.549194 186.266846,349.766907 
	C186.725632,350.658142 186.906570,351.331726 187.087494,352.005280 
z"/>
<path fill="#1B2632" opacity="1.000000" stroke="none" 
	d="
M109.660446,134.941254 
	C112.494049,134.999664 114.995064,135.075317 117.896927,135.672577 
	C118.254005,138.188812 118.173805,140.183441 118.171791,142.178116 
	C118.127991,185.442551 118.092918,228.706970 117.646500,271.995178 
	C114.825447,272.348846 112.414070,272.678680 109.738007,272.992493 
	C109.296791,272.985321 109.120239,272.994232 108.943680,273.003143 
	C108.943680,273.003143 108.750793,273.062286 108.826920,272.636963 
	C109.253357,270.446991 109.907097,268.682831 109.909508,266.917725 
	C109.967133,224.704086 109.978531,182.490280 109.872543,140.276840 
	C109.868111,138.516037 108.649315,136.758286 107.996269,134.999115 
	C108.440132,134.985565 108.884003,134.972031 109.660446,134.941254 
z"/>
<path fill="#020305" opacity="1.000000" stroke="none" 
	d="
M107.617462,135.042084 
	C108.649315,136.758286 109.868111,138.516037 109.872543,140.276840 
	C109.978531,182.490280 109.967133,224.704086 109.909508,266.917725 
	C109.907097,268.682831 109.253357,270.446991 108.729279,272.611633 
	C106.655487,273.008942 104.755463,273.006256 102.438133,272.535950 
	C102.014915,226.711655 102.009003,181.354935 102.003090,135.998230 
	C103.748276,135.693848 105.493462,135.389465 107.617462,135.042084 
z"/>
<path fill="#3A7096" opacity="1.000000" stroke="none" 
	d="
M178.730499,375.040955 
	C184.310532,374.842041 189.630066,374.958862 194.949570,374.957825 
	C260.658173,374.945099 326.366791,374.915222 392.543732,374.928864 
	C391.693115,375.308838 390.374359,375.946960 389.055176,375.947937 
	C319.917389,375.997864 250.779541,375.996979 181.641724,375.966705 
	C180.584366,375.966248 179.527222,375.533142 178.730499,375.040955 
z"/>
<path fill="#4B84AA" opacity="1.000000" stroke="none" 
	d="
M314.761475,126.586037 
	C246.970230,126.985413 178.962616,127.012657 110.490097,126.994347 
	C111.214951,126.633965 112.404549,126.044426 113.594536,126.043640 
	C180.085281,125.999825 246.576035,126.004700 313.066803,126.014175 
	C313.559570,126.014244 314.052338,126.144463 314.761475,126.586037 
z"/>
<path fill="#000D25" opacity="1.000000" stroke="none" 
	d="
M323.996460,135.978775 
	C324.023560,183.979324 324.050659,231.979858 324.076233,280.495575 
	C324.074738,281.010742 323.888855,281.082153 323.657349,281.052399 
	C323.425812,281.022644 322.992188,280.849182 322.991028,280.390320 
	C322.990784,261.804779 323.010284,243.678116 322.988525,225.551483 
	C322.952759,195.786163 322.890320,166.020859 323.127625,136.182922 
	C323.609558,136.066467 323.803009,136.022629 323.996460,135.978775 
z"/>
<path fill="#000D25" opacity="1.000000" stroke="none" 
	d="
M101.699867,136.287231 
	C102.009003,181.354935 102.014915,226.711655 102.018463,272.537842 
	C101.676292,271.623383 101.041191,270.239838 101.039536,268.855469 
	C100.988266,225.740143 100.996201,182.624741 101.016457,139.509354 
	C101.016914,138.531570 101.264389,137.553940 101.699867,136.287231 
z"/>
<path fill="#F6FAFC" opacity="1.000000" stroke="none" 
	d="
M332.253357,297.790039 
	C334.783386,297.923828 337.313416,298.057556 340.291962,298.436829 
	C340.849213,298.808868 340.957977,298.935394 341.020874,299.493500 
	C341.020081,302.244812 341.065186,304.564514 341.084412,306.927338 
	C341.058533,306.970459 340.978485,307.031342 340.548035,307.006927 
	C337.574371,306.945709 335.031189,306.908905 332.361938,306.438599 
	C332.151825,303.336945 332.067749,300.668732 332.046112,297.941528 
	C332.108521,297.882477 332.253357,297.790039 332.253357,297.790039 
z"/>
<path fill="#F6FAFC" opacity="1.000000" stroke="none" 
	d="
M358.979523,323.762482 
	C359.428650,323.828369 359.877747,323.894226 361.074493,323.962067 
	C363.218140,324.035278 364.614136,324.106537 366.067810,324.368103 
	C366.246796,324.824554 366.452545,324.975891 366.803955,325.447266 
	C366.873108,327.932678 366.881104,329.983215 366.499969,332.019226 
	C358.011536,333.184723 358.011627,333.184723 357.979858,325.021942 
	C357.978546,324.688690 357.972382,324.355469 357.995300,323.991455 
	C358.022156,323.960663 358.089539,323.914429 358.318665,323.915131 
	C358.547760,323.915833 358.979523,323.762482 358.979523,323.762482 
z"/>
<path fill="#FCFEFE" opacity="1.000000" stroke="none" 
	d="
M349.812897,307.302124 
	C349.796326,309.601624 349.779755,311.901093 349.874359,314.606812 
	C349.985535,315.013062 349.941498,315.055450 349.502380,315.008789 
	C346.429169,314.910980 343.795105,314.859772 341.103027,314.385437 
	C341.022827,311.652008 341.000641,309.341675 340.978485,307.031342 
	C340.978485,307.031342 341.058533,306.970459 341.516785,306.914337 
	C344.278198,306.824860 346.581360,306.791504 349.077850,306.960266 
	C349.451782,307.208984 349.632355,307.255554 349.812897,307.302124 
z"/>
<path fill="#020305" opacity="1.000000" stroke="none" 
	d="
M169.985962,358.110077 
	C179.954010,357.778748 177.796158,357.779022 178.022339,366.532074 
	C177.706390,366.988800 177.380783,366.994873 177.055161,366.995728 
	C170.016953,367.013916 170.016953,367.013794 169.991791,359.244812 
	C169.994278,358.568909 169.985962,358.110077 169.985962,358.110077 
z"/>
<path fill="#02050C" opacity="1.000000" stroke="none" 
	d="
M383.963715,340.698181 
	C381.357697,341.075378 378.777130,340.995514 375.757446,340.881165 
	C375.318298,340.846680 375.357574,340.807129 375.322174,340.382690 
	C375.287415,337.673004 375.288055,335.387817 375.514526,333.153687 
	C375.740387,333.204803 376.169098,333.029510 376.169098,333.029510 
	C376.331696,333.025879 376.494324,333.018799 376.656921,333.019104 
	C384.851776,333.034637 383.997101,332.163788 383.963715,340.698181 
z"/>
<path fill="#02050C" opacity="1.000000" stroke="none" 
	d="
M135.989502,325.340546 
	C138.341400,324.485260 140.698105,324.089783 144.007858,323.534363 
	C144.007858,326.913635 144.007858,329.495697 144.006668,332.530701 
	C143.677628,332.988434 143.349777,332.998230 143.021942,332.997223 
	C134.939972,332.972687 136.110626,333.559387 135.989502,325.340546 
z"/>
<path fill="#02050C" opacity="1.000000" stroke="none" 
	d="
M324.154419,280.951080 
	C326.539185,280.929047 328.844208,280.966675 331.563904,281.463257 
	C332.007233,284.602142 332.035980,287.282104 332.064728,289.962036 
	C332.064728,289.962036 331.998718,289.995880 331.609985,289.821655 
	C328.859589,289.620178 326.497955,289.592957 324.099121,289.147827 
	C324.004242,286.180695 323.946564,283.631409 323.888855,281.082153 
	C323.888855,281.082153 324.074738,281.010742 324.154419,280.951080 
z"/>
<path fill="#020305" opacity="1.000000" stroke="none" 
	d="
M152.990967,342.393005 
	C155.431427,341.547363 157.875656,341.155212 161.183823,340.624451 
	C160.845871,344.174896 160.606018,346.694672 160.227463,349.590454 
	C153.010071,350.038116 153.010071,350.038116 152.990967,342.393005 
z"/>
<path fill="#02050C" opacity="1.000000" stroke="none" 
	d="
M126.999359,316.425659 
	C129.486740,315.878174 131.973679,315.777863 134.460602,315.677551 
	C134.433533,318.196381 134.406448,320.715210 134.212402,323.600281 
	C131.968109,323.966522 129.890793,323.966522 126.998901,323.966522 
	C126.998901,321.368408 126.998901,319.120605 126.999359,316.425659 
z"/>
<path fill="#02050C" opacity="1.000000" stroke="none" 
	d="
M169.987152,357.649902 
	C169.985962,358.110077 169.994278,358.568909 169.985291,358.798523 
	C167.564056,359.016235 165.151794,359.004364 162.337967,358.979309 
	C161.946045,357.640381 161.996918,356.313354 161.956772,354.989105 
	C161.873383,352.237976 161.607269,349.867310 165.822052,349.814850 
	C170.245728,349.759827 170.144623,352.221893 169.998886,355.200897 
	C169.966537,355.862457 169.990356,356.526733 169.987152,357.649902 
z"/>
<path fill="#FCFEFE" opacity="1.000000" stroke="none" 
	d="
M349.961548,315.032959 
	C351.999939,315.082886 354.062317,315.112946 356.627991,315.395294 
	C357.329407,315.848663 357.569122,315.961121 357.850403,315.985016 
	C357.926086,318.042389 358.001770,320.099731 358.090698,322.804443 
	C358.103943,323.451752 358.089539,323.914429 358.089539,323.914429 
	C358.089539,323.914429 358.022156,323.960663 357.547852,323.992065 
	C349.849152,323.992859 349.849518,323.992859 349.930939,317.009155 
	C349.938538,316.357941 349.938171,315.706696 349.941528,315.055450 
	C349.941498,315.055450 349.985535,315.013062 349.961548,315.032959 
z"/>
<path fill="#02050C" opacity="1.000000" stroke="none" 
	d="
M118.992653,308.358063 
	C121.460350,307.807251 123.931183,307.711029 126.402016,307.614777 
	C126.385971,309.827972 126.369919,312.041138 126.192276,314.622131 
	C123.992363,315.401550 121.954048,315.813232 118.995789,316.410675 
	C118.995789,313.333618 118.995789,311.073120 118.992653,308.358063 
z"/>
<path fill="#FCFEFE" opacity="1.000000" stroke="none" 
	d="
M324.136322,289.565735 
	C326.497955,289.592957 328.859589,289.620178 331.640686,289.799927 
	C332.176819,292.279297 332.293457,294.606110 332.331726,297.361511 
	C332.253357,297.790039 332.108521,297.882477 331.608704,297.973511 
	C328.789459,297.980011 326.470062,297.895416 324.097137,297.362000 
	C324.074524,294.463989 324.105408,292.014832 324.136322,289.565735 
z"/>
<path fill="#02050C" opacity="1.000000" stroke="none" 
	d="
M366.889099,332.033783 
	C366.881104,329.983215 366.873108,327.932678 366.911377,325.228088 
	C366.957611,324.574097 366.914185,324.087250 366.971924,324.032166 
	C367.029663,323.977112 367.149170,323.871399 367.149170,323.871399 
	C369.466583,323.913330 371.783966,323.955261 374.504578,324.468140 
	C374.906647,327.449036 374.905518,329.959015 374.464172,332.460388 
	C371.663147,332.353363 369.302368,332.254974 366.962189,332.111481 
	C366.982819,332.066376 366.889099,332.033783 366.889099,332.033783 
z"/>
<path fill="#02050C" opacity="1.000000" stroke="none" 
	d="
M144.007599,333.427643 
	C151.447708,331.136993 153.067871,332.723297 151.256714,340.589844 
	C144.192078,340.956848 144.012878,340.778168 144.007599,333.427643 
z"/>
<path fill="#02050C" opacity="1.000000" stroke="none" 
	d="
M366.010162,324.177795 
	C364.614136,324.106537 363.218140,324.035278 361.409149,323.883423 
	C360.996185,321.276764 360.996185,318.750671 360.996185,314.753448 
	C362.408630,317.118927 363.080200,318.243622 364.011902,319.803986 
	C364.683990,318.565704 365.235046,317.550385 365.786102,316.535065 
	C366.206299,316.538574 366.626495,316.542084 367.046692,316.545624 
	C367.046692,318.708435 367.046692,320.871246 367.097931,323.452728 
	C367.149170,323.871399 367.029663,323.977112 366.741394,324.009644 
	C366.453094,324.042145 366.010162,324.177795 366.010162,324.177795 
z"/>
<path fill="#48626D" opacity="1.000000" stroke="none" 
	d="
M108.961731,273.471222 
	C109.120239,272.994232 109.296791,272.985321 109.745605,273.460083 
	C110.044685,284.284088 110.071510,294.624390 110.098335,304.964691 
	C110.066261,305.398071 110.034187,305.831451 109.981384,306.590088 
	C109.635368,305.401825 109.042542,303.890808 109.028442,302.374390 
	C108.940323,292.896698 108.981453,283.417786 108.961731,273.471222 
z"/>
<path fill="#48626D" opacity="1.000000" stroke="none" 
	d="
M332.487732,290.103424 
	C332.035980,287.282104 332.007233,284.602142 332.002686,281.476074 
	C332.531891,283.490112 333.036896,285.950256 333.613708,288.760162 
	C335.682892,288.891327 337.930573,289.033813 340.178284,289.176300 
	C340.188477,289.378021 340.198669,289.579742 340.208862,289.781494 
	C337.776154,289.935913 335.343414,290.090363 332.487732,290.103424 
z"/>
<path fill="#30474F" opacity="1.000000" stroke="none" 
	d="
M349.890930,306.830139 
	C349.632355,307.255554 349.451782,307.208984 349.081116,306.527313 
	C348.891052,303.783630 348.891052,301.675049 348.891052,299.061890 
	C345.954712,299.061890 343.510712,299.061890 341.066742,299.061890 
	C340.957977,298.935394 340.849213,298.808868 340.711975,298.433472 
	C343.623169,298.184540 346.562897,298.184540 349.968964,298.184540 
	C349.968964,301.139832 349.968964,303.749023 349.890930,306.830139 
z"/>
<path fill="#263441" opacity="1.000000" stroke="none" 
	d="
M323.760986,135.648605 
	C323.803009,136.022629 323.609558,136.066467 322.716187,136.114944 
	C319.771179,136.110992 317.526154,136.102386 315.091858,135.895111 
	C314.860046,135.518524 314.817474,135.340607 314.774872,135.162704 
	C314.975861,135.076248 315.176849,134.989792 315.694916,134.816742 
	C318.516479,134.926254 321.020966,135.122345 323.760986,135.648605 
z"/>
<path fill="#48626D" opacity="1.000000" stroke="none" 
	d="
M374.904419,332.468994 
	C374.905518,329.959015 374.906647,327.449036 374.940308,324.475220 
	C375.337036,326.723267 375.701263,329.435150 376.117310,332.588257 
	C376.169098,333.029510 375.740387,333.204803 375.299866,333.067139 
	C374.859344,332.929474 374.904388,332.468994 374.904419,332.468994 
z"/>
<path fill="#48626D" opacity="1.000000" stroke="none" 
	d="
M400.803802,349.641907 
	C398.616669,350.021912 396.241547,350.039520 393.421265,350.032043 
	C395.522675,349.764465 398.069275,349.522003 400.803802,349.641907 
z"/>
<path fill="#AFD6E8" opacity="1.000000" stroke="none" 
	d="
M357.883850,315.713196 
	C357.569122,315.961121 357.329407,315.848663 357.062012,315.457886 
	C357.300934,315.325867 357.609131,315.383606 357.883850,315.713196 
z"/>
<path fill="#02050C" opacity="1.000000" stroke="none" 
	d="
M358.318665,323.915131 
	C358.089539,323.914429 358.103943,323.451752 358.186493,323.235596 
	C358.506348,323.092285 358.694916,323.231262 358.907104,323.599426 
	C358.979523,323.762482 358.547760,323.915833 358.318665,323.915131 
z"/>
<path fill="#334A4F" opacity="1.000000" stroke="none" 
	d="
M187.565475,366.850220 
	C187.067490,364.158356 187.026337,361.514404 186.999634,358.423035 
	C217.811630,358.011139 248.609207,358.046631 279.846252,358.560852 
	C280.334808,361.487732 280.383850,363.935852 280.432892,366.384003 
	C278.789825,366.565094 277.146881,366.902740 275.503662,366.903992 
	C246.343231,366.926392 217.182770,366.907837 187.565475,366.850220 
z"/>
<path fill="#31484D" opacity="1.000000" stroke="none" 
	d="
M306.954742,358.234833 
	C335.000214,358.184021 363.045715,358.133179 391.573853,358.451111 
	C392.078644,359.544922 392.100769,360.269958 392.122925,360.995026 
	C391.995819,362.786041 391.868683,364.577087 391.707458,366.848877 
	C363.551544,366.848877 335.645996,366.848877 307.306519,366.350281 
	C306.899933,363.312714 306.927338,360.773773 306.954742,358.234833 
z"/>
<path fill="#28B29C" opacity="1.000000" stroke="none" 
	d="
M306.521729,358.149231 
	C306.927338,360.773773 306.899933,363.312714 306.831512,366.268250 
	C304.499054,366.755005 302.207611,366.825134 299.295013,366.536011 
	C298.480682,363.532715 298.287506,360.888641 298.094360,358.244598 
	C300.759155,358.184265 303.423950,358.123932 306.521729,358.149231 
z"/>
<path fill="#31484D" opacity="1.000000" stroke="none" 
	d="
M297.639038,358.167023 
	C298.287506,360.888641 298.480682,363.532715 298.862640,366.515381 
	C296.302521,366.843231 293.553589,366.832428 290.366699,366.319794 
	C289.924988,363.288086 289.921204,360.758240 289.917419,358.228363 
	C292.339508,358.182068 294.761627,358.135773 297.639038,358.167023 
z"/>
<path fill="#E54906" opacity="1.000000" stroke="none" 
	d="
M286.092010,366.726318 
	C285.017517,366.769501 283.943054,366.812714 282.455200,366.349945 
	C282.039917,364.216339 281.714813,362.491943 282.161804,360.998718 
	C282.414642,360.154083 283.918945,359.218231 284.890472,359.183350 
	C285.896729,359.147247 287.868042,360.282043 287.812042,360.677277 
	C287.520721,362.733582 286.717224,364.717316 286.092010,366.726318 
z"/>
<path fill="#B1522B" opacity="1.000000" stroke="none" 
	d="
M286.462402,366.831604 
	C286.717224,364.717316 287.520721,362.733582 287.812042,360.677277 
	C287.868042,360.282043 285.896729,359.147247 284.890472,359.183350 
	C283.918945,359.218231 282.414642,360.154083 282.161804,360.998718 
	C281.714813,362.491943 282.039917,364.216339 282.059204,366.268341 
	C281.695343,366.693085 281.314117,366.693451 280.682892,366.538940 
	C280.383850,363.935852 280.334808,361.487732 280.336243,358.617401 
	C283.274780,358.152863 286.162811,358.110504 289.484131,358.148254 
	C289.921204,360.758240 289.924988,363.288086 289.917511,366.227783 
	C288.881775,366.737396 287.857300,366.837158 286.462402,366.831604 
z"/>
<path fill="#000000" opacity="1.000000" stroke="none" 
	d="
M392.500366,361.004700 
	C392.100769,360.269958 392.078644,359.544922 392.044495,358.456665 
	C392.220581,356.951752 392.408600,355.810059 392.729980,354.332703 
	C397.692535,354.399933 397.209747,358.114594 397.883698,361.878204 
	C395.887390,361.533722 394.382629,361.274048 392.500366,361.004700 
z"/>
<path fill="#AFD6E8" opacity="1.000000" stroke="none" 
	d="
M324.099121,289.147827 
	C324.105408,292.014832 324.074524,294.463989 324.000977,297.469147 
	C323.958313,298.025177 323.770691,298.243713 323.335938,298.215210 
	C320.265259,298.136108 317.629303,298.085571 315.051544,297.576050 
	C315.109741,294.696381 315.109741,292.275665 315.109741,289.916992 
	C260.593933,289.916992 206.855072,289.916992 152.837982,289.916992 
	C152.837982,292.732422 152.837982,295.257141 152.837982,297.997498 
	C155.747513,298.132965 158.314056,298.252441 160.927979,298.374115 
	C161.082428,301.497070 161.210190,304.080322 161.334946,306.602722 
	C164.524933,306.809052 167.173508,306.980347 169.785919,307.597687 
	C169.749741,310.258667 169.749741,312.473663 169.749741,315.087677 
	C172.813812,315.087677 175.366806,315.087677 177.969513,315.534119 
	C178.019226,318.528809 178.019226,321.077118 178.019226,324.095062 
	C181.419403,324.095062 184.163940,324.095062 186.905487,324.548706 
	C186.902481,327.286560 186.902481,329.570770 186.902481,332.042236 
	C241.330246,332.042236 295.248566,332.042236 349.419830,332.042236 
	C349.419830,329.296967 349.419830,326.887787 349.419830,324.207336 
	C346.601318,324.073334 344.005585,323.949951 340.796814,323.797394 
	C340.796814,320.780457 340.796814,318.004547 340.884644,315.120819 
	C340.972443,315.013000 341.161041,314.808594 341.161041,314.808594 
	C343.795105,314.859772 346.429169,314.910980 349.502380,315.008789 
	C349.938171,315.706696 349.938538,316.357941 349.930939,317.009155 
	C349.849518,323.992859 349.849152,323.992859 357.520996,324.022858 
	C357.972382,324.355469 357.978546,324.688690 357.979858,325.021942 
	C358.011627,333.184723 358.011536,333.184723 366.499969,332.019226 
	C366.889099,332.033783 366.982819,332.066376 367.011932,332.555603 
	C367.041046,335.603424 367.041046,338.162079 367.041046,340.807129 
	C370.401031,340.807129 372.879303,340.807129 375.357574,340.807129 
	C375.357574,340.807129 375.318298,340.846680 375.335724,340.817352 
	C375.028687,343.714813 375.731903,348.037201 374.124054,349.221161 
	C372.034241,350.760071 368.107574,349.900818 364.971222,349.906128 
	C348.548462,349.933838 332.125580,349.908569 315.326416,349.401794 
	C314.950073,346.334198 314.950073,343.766571 314.950073,341.113068 
	C311.958710,341.113068 309.496490,341.113068 306.568359,341.040466 
	C294.725586,341.010071 283.348694,341.052277 271.523315,341.040527 
	C268.735413,340.986633 266.395996,340.986633 263.813843,340.986633 
	C263.813843,344.175720 263.813843,346.598633 263.398071,349.035095 
	C260.647980,349.338867 258.313690,349.629028 255.979385,349.919189 
	C243.303879,349.919800 230.628372,349.920441 217.208771,349.668701 
	C214.303497,349.584167 212.142334,349.752045 209.981155,349.919922 
	C204.305695,349.915863 198.630249,349.911835 192.234619,349.663208 
	C190.000046,348.946075 188.485641,348.473480 186.984833,347.571350 
	C186.966888,345.423828 186.935349,343.705811 186.832687,341.766602 
	C186.586914,341.263275 186.335922,341.094910 185.560486,341.014862 
	C182.708389,341.002930 180.304459,341.016357 177.900513,341.029816 
	C177.900513,341.029816 177.973801,341.014862 177.964844,340.776825 
	C177.947571,340.355377 177.939270,340.171936 177.961517,339.743713 
	C177.992081,339.498993 177.958344,339.006927 177.979401,338.607056 
	C177.982391,337.139923 177.964294,336.072662 177.964203,334.599060 
	C176.131424,329.932343 172.740234,332.690918 169.921555,332.288727 
	C169.834213,332.134583 169.656616,331.827942 169.772278,331.549377 
	C169.887650,330.868988 169.887344,330.467163 169.918793,329.678986 
	C169.923035,328.518799 169.895508,327.745026 169.897186,326.605164 
	C168.952789,325.502625 167.979187,324.766205 166.606110,324.005951 
	C165.139709,323.986328 164.072784,323.990540 162.761261,323.994324 
	C162.516647,323.993866 162.031219,324.054565 161.742584,324.051239 
	C161.261505,324.046844 161.069061,324.045807 160.876633,324.044739 
	C160.876633,324.044739 160.960785,324.036194 160.988464,323.614441 
	C160.987350,314.273987 162.474350,314.899841 152.816010,315.061432 
	C152.482834,315.067017 152.149734,315.076965 151.816589,315.084869 
	C151.816589,315.084869 151.915146,315.033966 151.976700,314.627563 
	C152.162659,306.829926 152.162643,306.829376 144.863693,306.971893 
	C144.541260,306.978210 144.219345,307.010742 143.897186,307.031067 
	C143.897186,307.031067 143.981842,307.042206 143.970917,306.618286 
	C144.009979,297.013031 145.144211,297.975220 135.794357,298.091217 
	C135.462036,298.095337 135.129547,298.087006 134.797134,298.084473 
	C134.797134,298.084473 134.927704,298.064880 134.975769,297.666656 
	C135.133270,289.733887 135.133240,289.732971 127.827225,289.954224 
	C127.503342,289.964020 127.180794,290.018097 126.857628,290.051514 
	C126.857628,290.051514 126.963730,290.077454 126.948441,289.669281 
	C126.953552,286.578613 126.973946,283.896149 127.456139,281.133789 
	C133.266083,280.985626 138.614212,280.917297 144.402069,280.925903 
	C147.217682,280.980957 149.593597,280.959045 152.433655,281.016724 
	C158.610275,281.040955 164.322754,280.985626 170.477737,280.969727 
	C173.292496,280.955811 175.664734,280.902527 178.497894,280.924683 
	C204.295807,280.958588 229.632828,280.917053 255.415649,280.950470 
	C258.563019,280.963806 261.264526,280.902222 264.430542,280.915955 
	C270.274017,280.943146 275.653046,280.894989 281.476135,280.920380 
	C284.622467,280.955688 287.324768,280.917450 290.489990,280.944458 
	C301.632660,280.956177 312.312439,280.902679 322.992188,280.849182 
	C322.992188,280.849182 323.425812,281.022644 323.657349,281.052399 
	C323.946564,283.631409 324.004242,286.180695 324.099121,289.147827 
z"/>
<path fill="#3A5157" opacity="1.000000" stroke="none" 
	d="
M271.971802,341.094452 
	C283.348694,341.052277 294.725586,341.010071 306.542114,341.465393 
	C307.009399,344.480652 307.037018,346.998413 307.064636,349.516144 
	C295.661835,349.595978 284.259064,349.675781 272.416809,349.230194 
	C271.975525,346.167999 271.973663,343.631226 271.971802,341.094452 
z"/>
<path fill="#1B2735" opacity="1.000000" stroke="none" 
	d="
M271.523315,341.040527 
	C271.973663,343.631226 271.975525,346.167999 271.956360,349.120850 
	C269.663116,349.608307 267.390930,349.679657 264.622314,349.575500 
	C264.125854,349.400024 263.813843,349.021515 263.813843,349.021515 
	C263.813843,346.598633 263.813843,344.175720 263.813843,340.986633 
	C266.395996,340.986633 268.735413,340.986633 271.523315,341.040527 
z"/>
<path fill="#1B2734" opacity="1.000000" stroke="none" 
	d="
M307.482849,349.611084 
	C307.037018,346.998413 307.009399,344.480652 307.008026,341.537994 
	C309.496490,341.113068 311.958710,341.113068 314.950073,341.113068 
	C314.950073,343.766571 314.950073,346.334198 314.846313,349.333862 
	C312.462067,349.745911 310.181580,349.725952 307.482849,349.611084 
z"/>
<path fill="#ECF2F4" opacity="1.000000" stroke="none" 
	d="
M263.398071,349.035095 
	C263.813843,349.021515 264.125854,349.400024 264.201416,349.633362 
	C261.683746,350.082489 259.090546,350.298218 256.238373,350.216553 
	C258.313690,349.629028 260.647980,349.338867 263.398071,349.035095 
z"/>
<path fill="#ECF2F4" opacity="1.000000" stroke="none" 
	d="
M186.971222,348.000885 
	C188.485641,348.473480 190.000046,348.946075 191.768158,349.660004 
	C190.606979,350.573120 189.192093,351.244873 187.432358,351.960938 
	C186.906570,351.331726 186.725632,350.658142 186.290985,349.522095 
	C186.348587,348.706696 186.659897,348.353790 186.971222,348.000885 
z"/>
<path fill="#ECF2F4" opacity="1.000000" stroke="none" 
	d="
M210.232666,350.213226 
	C212.142334,349.752045 214.303497,349.584167 216.741287,349.668579 
	C214.839996,350.116119 212.662079,350.311310 210.232666,350.213226 
z"/>
<path fill="#AFD7E9" opacity="1.000000" stroke="none" 
	d="
M314.321777,135.185577 
	C314.817474,135.340607 314.860046,135.518524 315.040649,136.202957 
	C315.210205,137.123489 315.241699,137.537506 315.180847,138.224258 
	C315.150757,138.678604 315.212952,138.860214 315.227661,139.505493 
	C315.180115,184.053986 315.180115,228.138809 315.180115,272.744690 
	C306.409241,272.744690 298.269836,272.744690 289.695160,272.594910 
	C286.533203,272.564453 283.806580,272.683777 280.630127,272.659180 
	C274.761871,272.616180 269.343475,272.717010 263.493164,272.677490 
	C260.328278,272.610413 257.595337,272.683655 254.417572,272.643982 
	C242.658966,272.513763 231.344955,272.447540 220.031357,272.491516 
	C206.067017,272.545837 192.103043,272.691833 177.716568,272.644836 
	C174.922333,272.540619 172.550415,272.589752 169.726166,272.476837 
	C163.460770,272.416962 157.647705,272.519135 151.396912,272.553009 
	C148.589752,272.587402 146.220367,272.690063 143.410797,272.664551 
	C134.665802,272.348053 126.360985,272.159729 118.056168,271.971405 
	C118.092918,228.706970 118.127991,185.442551 118.171791,142.178116 
	C118.173805,140.183441 118.254005,138.188812 118.363304,135.750031 
	C183.575439,135.273407 248.722046,135.240936 314.321777,135.185577 
M305.164856,144.037796 
	C303.109833,144.082596 301.054779,144.127411 298.073364,144.021240 
	C267.150635,144.012955 236.227921,143.982513 205.305222,144.003876 
	C183.529800,144.018921 161.754410,144.104416 139.197754,144.004196 
	C138.141205,144.055634 137.084656,144.107086 135.144119,144.019333 
	C132.761780,144.069778 130.379425,144.120209 127.452782,144.100449 
	C127.328430,144.400711 127.204071,144.700974 126.894180,145.922546 
	C126.943214,181.948456 126.992241,217.974365 126.979095,254.619308 
	C127.321060,254.771118 127.663025,254.922913 128.847855,255.266373 
	C130.570541,255.205093 132.293213,255.143799 134.663620,255.585999 
	C135.011276,258.298645 135.358917,261.011292 135.703156,263.697327 
	C189.955658,263.697327 243.849960,263.697327 298.131866,263.697327 
	C298.131866,260.677704 298.131866,257.890198 298.012299,255.016312 
	C298.012299,255.016312 298.100311,255.134842 298.709900,255.392059 
	C299.135010,255.290390 299.560120,255.188721 300.875977,255.277603 
	C302.680328,255.277603 304.484680,255.277603 306.832214,255.277603 
	C306.832214,253.290878 306.832092,251.672272 306.832245,250.053680 
	C306.833679,235.109482 306.863586,220.165207 306.829651,205.221085 
	C306.784058,185.135620 306.689178,165.050262 306.730927,144.549911 
	C306.592072,144.213379 306.355042,144.116119 305.164856,144.037796 
z"/>
<path fill="#010103" opacity="1.000000" stroke="none" 
	d="
M117.646500,271.995178 
	C126.360985,272.159729 134.665802,272.348053 143.456360,273.053711 
	C143.948853,275.996979 143.955597,278.422974 143.962341,280.848938 
	C138.614212,280.917297 133.266083,280.985626 127.009430,281.046936 
	C123.526573,281.039886 120.952232,281.039886 118.353142,281.039886 
	C118.353142,284.271881 118.353142,286.885040 118.353142,289.498199 
	C118.353142,294.776306 118.353142,300.054382 118.353142,306.158997 
	C115.207237,305.827240 113.000099,305.594482 110.445648,305.163208 
	C110.071510,294.624390 110.044685,284.284088 110.010277,273.476166 
	C112.414070,272.678680 114.825447,272.348846 117.646500,271.995178 
z"/>
<path fill="#F6FAFC" opacity="1.000000" stroke="none" 
	d="
M134.945984,298.506470 
	C135.129547,298.087006 135.462036,298.095337 135.794357,298.091217 
	C145.144211,297.975220 144.009979,297.013031 143.959595,306.659454 
	C141.313263,306.979156 138.667343,306.833801 135.513412,306.660553 
	C135.374466,304.093842 135.234634,301.511108 134.945984,298.506470 
z"/>
<path fill="#ECF2F4" opacity="1.000000" stroke="none" 
	d="
M151.996002,315.498810 
	C152.149734,315.076965 152.482834,315.067017 152.816010,315.061432 
	C162.474350,314.899841 160.987350,314.273987 160.984589,323.656525 
	C158.240402,324.120392 155.527802,324.120392 152.577377,324.120392 
	C152.425537,321.019714 152.300476,318.466217 151.996002,315.498810 
z"/>
<path fill="#ECF2F4" opacity="1.000000" stroke="none" 
	d="
M118.779030,289.522705 
	C118.353142,286.885040 118.353142,284.271881 118.353142,281.039886 
	C120.952232,281.039886 123.526573,281.039886 126.547623,281.126770 
	C126.973946,283.896149 126.953552,286.578613 126.925842,289.718994 
	C124.347321,289.966980 121.776123,289.757080 118.779030,289.522705 
z"/>
<path fill="#F6FAFC" opacity="1.000000" stroke="none" 
	d="
M186.984833,347.571350 
	C186.659897,348.353790 186.348587,348.706696 186.013123,349.304382 
	C183.586960,349.549194 181.184952,349.549194 178.057266,349.549194 
	C178.057266,346.947205 178.057266,344.430573 177.978882,341.471863 
	C180.304459,341.016357 182.708389,341.002930 185.657074,341.217590 
	C186.378922,341.700073 186.612930,341.880768 186.903809,341.987823 
	C186.935349,343.705811 186.966888,345.423828 186.984833,347.571350 
z"/>
<path fill="#ECF2F4" opacity="1.000000" stroke="none" 
	d="
M163.005859,323.994751 
	C164.072784,323.990540 165.139709,323.986328 166.635864,324.337738 
	C167.999390,325.452637 168.933685,326.211914 169.867981,326.971222 
	C169.895508,327.745026 169.923035,328.518799 169.727051,329.800232 
	C169.554550,330.814575 169.605576,331.321259 169.656616,331.827942 
	C169.656616,331.827942 169.834213,332.134583 169.903839,332.483551 
	C169.973450,332.832520 169.882065,333.226379 169.882065,333.226379 
	C167.148193,332.841736 164.414322,332.457092 161.022598,331.979919 
	C161.022598,329.738892 161.022598,327.331177 160.949615,324.484070 
	C161.069061,324.045807 161.261505,324.046844 161.833221,324.209503 
	C162.476959,324.245636 162.741409,324.120178 163.005859,323.994751 
z"/>
<path fill="#FCFEFE" opacity="1.000000" stroke="none" 
	d="
M126.848991,290.507385 
	C127.180794,290.018097 127.503342,289.964020 127.827225,289.954224 
	C135.133240,289.732971 135.133270,289.733887 134.970703,297.732483 
	C132.462265,298.196533 130.006989,298.196533 126.840355,298.196533 
	C126.840355,295.725586 126.840355,293.344421 126.848991,290.507385 
z"/>
<path fill="#FCFEFE" opacity="1.000000" stroke="none" 
	d="
M143.935684,307.483398 
	C144.219345,307.010742 144.541260,306.978210 144.863693,306.971893 
	C152.162643,306.829376 152.162659,306.829926 151.993042,314.680573 
	C149.513367,315.139954 147.078888,315.139954 143.974182,315.139954 
	C143.974182,312.673859 143.974182,310.304779 143.935684,307.483398 
z"/>
<path fill="#FCFEFE" opacity="1.000000" stroke="none" 
	d="
M177.930954,339.988464 
	C177.939270,340.171936 177.947571,340.355377 177.966827,340.814178 
	C175.937469,341.040222 173.897186,340.990845 171.308105,340.684448 
	C170.555603,340.198181 170.303055,340.055298 170.001633,339.998749 
	C169.926254,338.278931 169.850876,336.559113 170.231476,334.416931 
	C173.107040,334.331543 175.526627,334.668457 177.946213,335.005402 
	C177.964294,336.072662 177.982391,337.139923 177.821747,338.693909 
	C177.582306,339.282990 177.445526,339.436737 177.473999,339.478912 
	C177.600418,339.666229 177.774261,339.821564 177.930954,339.988464 
z"/>
<path fill="#F6FAFC" opacity="1.000000" stroke="none" 
	d="
M177.964203,334.599060 
	C175.526627,334.668457 173.107040,334.331543 170.335968,333.997192 
	C169.984482,333.999756 169.769653,333.634766 169.825867,333.430573 
	C169.882065,333.226379 169.973450,332.832520 169.991180,332.637695 
	C172.740234,332.690918 176.131424,329.932343 177.964203,334.599060 
z"/>
<path fill="#ECF2F4" opacity="1.000000" stroke="none" 
	d="
M169.976074,340.286591 
	C170.303055,340.055298 170.555603,340.198181 170.875793,340.614990 
	C170.645020,340.726532 170.297775,340.650482 169.976074,340.286591 
z"/>
<path fill="#010103" opacity="1.000000" stroke="none" 
	d="
M315.273163,137.951508 
	C315.241699,137.537506 315.210205,137.123489 315.229919,136.401642 
	C317.526154,136.102386 319.771179,136.110992 322.427673,136.187576 
	C322.890320,166.020859 322.952759,195.786163 322.988525,225.551483 
	C323.010284,243.678116 322.990784,261.804779 322.991028,280.390320 
	C312.312439,280.902679 301.632660,280.956177 290.465027,280.527893 
	C290.028229,277.612274 290.079346,275.178497 290.130463,272.744690 
	C298.269836,272.744690 306.409241,272.744690 315.180115,272.744690 
	C315.180115,228.138809 315.180115,184.053986 315.389832,139.409561 
	C315.490753,138.550476 315.381958,138.250992 315.273163,137.951508 
z"/>
<path fill="#B5DDED" opacity="1.000000" stroke="none" 
	d="
M340.548035,307.006927 
	C341.000641,309.341675 341.022827,311.652008 341.103027,314.385468 
	C341.161041,314.808594 340.972443,315.013000 340.430878,315.090027 
	C337.426331,315.088104 334.963348,315.009125 332.514038,314.954102 
	C332.527679,314.978058 332.548340,315.029175 332.486176,314.584839 
	C332.294983,311.748505 332.165955,309.356506 332.149414,306.940002 
	C332.261871,306.915497 332.488007,306.872070 332.488007,306.872070 
	C335.031189,306.908905 337.574371,306.945709 340.548035,307.006927 
z"/>
<path fill="#ADD2E3" opacity="1.000000" stroke="none" 
	d="
M324.054504,297.918030 
	C326.470062,297.895416 328.789459,297.980011 331.546265,298.032562 
	C332.067749,300.668732 332.151825,303.336945 332.361938,306.438599 
	C332.488007,306.872070 332.261871,306.915497 331.701111,306.908447 
	C328.742798,306.935608 326.345215,306.969788 323.966522,306.561707 
	C323.913849,303.494171 323.842255,300.868958 323.770691,298.243713 
	C323.770691,298.243713 323.958313,298.025177 324.054504,297.918030 
z"/>
<path fill="#020305" opacity="1.000000" stroke="none" 
	d="
M341.020874,299.493500 
	C343.510712,299.061890 345.954712,299.061890 348.891052,299.061890 
	C348.891052,301.675049 348.891052,303.783630 348.887787,306.325195 
	C346.581360,306.791504 344.278198,306.824860 341.542664,306.871216 
	C341.065186,304.564514 341.020081,302.244812 341.020874,299.493500 
z"/>
<path fill="#AFD6E8" opacity="1.000000" stroke="none" 
	d="
M366.067810,324.368103 
	C366.010162,324.177795 366.453094,324.042145 366.683655,324.064697 
	C366.914185,324.087250 366.957611,324.574097 366.850220,324.793274 
	C366.452545,324.975891 366.246796,324.824554 366.067810,324.368103 
z"/>
<path fill="#FCFEFE" opacity="1.000000" stroke="none" 
	d="
M375.322174,340.382690 
	C372.879303,340.807129 370.401031,340.807129 367.041046,340.807129 
	C367.041046,338.162079 367.041046,335.603424 366.991302,332.600708 
	C369.302368,332.254974 371.663147,332.353363 374.464172,332.460388 
	C374.904388,332.468994 374.859344,332.929474 375.074036,333.016052 
	C375.288055,335.387817 375.287415,337.673004 375.322174,340.382690 
z"/>
<path fill="#1B2734" opacity="1.000000" stroke="none" 
	d="
M169.822098,307.151672 
	C167.173508,306.980347 164.524933,306.809052 161.334946,306.602722 
	C161.210190,304.080322 161.082428,301.497070 160.927979,298.374115 
	C158.314056,298.252441 155.747513,298.132965 152.837982,297.997498 
	C152.837982,295.257141 152.837982,292.732422 152.837982,289.916992 
	C206.855072,289.916992 260.593933,289.916992 315.109741,289.916992 
	C315.109741,292.275665 315.109741,294.696381 315.075409,297.561340 
	C315.041077,298.005615 315.028015,297.950165 314.597778,298.027344 
	C311.856079,298.119781 309.544647,298.134979 306.766632,298.100067 
	C296.398315,298.045837 298.284302,297.221161 297.994507,305.969849 
	C297.983643,306.297913 298.004761,306.627014 297.565125,306.914185 
	C294.727356,306.915253 292.335388,306.957764 289.841400,306.563110 
	C289.626465,303.589325 289.513550,301.052704 289.384644,298.157532 
	C286.418732,298.157532 283.854553,298.157532 280.835449,298.115356 
	C271.440399,297.905731 271.431946,297.916260 273.810852,306.985291 
	C276.110687,306.985291 278.571808,306.985291 281.272644,307.005981 
	C281.512390,307.026672 281.953888,306.835083 282.402588,306.847382 
	C285.246063,306.878784 287.640900,306.897888 289.868591,307.346466 
	C289.788544,310.199402 289.875641,312.622833 289.988464,315.024017 
	C290.014221,315.001770 290.060425,314.951843 289.590759,315.010925 
	C272.108826,315.141785 255.096542,315.213593 238.065674,314.815918 
	C238.011169,311.859070 237.975281,309.371735 238.004761,306.441406 
	C238.070145,303.486755 238.070145,300.975128 238.070145,298.131866 
	C235.008682,298.131866 232.606247,298.131866 229.738617,298.082520 
	C226.689117,298.033142 224.104797,298.033142 220.940002,298.033142 
	C220.940002,301.520752 220.940002,304.302399 220.535019,306.995483 
	C218.752563,306.946350 217.375092,306.985809 215.579712,306.931641 
	C209.938675,305.642975 214.607941,300.675354 211.339722,298.130402 
	C209.397125,298.130402 206.808609,298.130402 203.752380,298.085266 
	C193.276459,298.047760 195.321320,297.289795 195.002914,305.971771 
	C194.990891,306.299561 195.007523,306.628418 194.564651,306.918396 
	C191.725311,306.926086 189.332108,306.972137 186.953735,306.564819 
	C186.968567,303.542603 186.968567,300.973724 186.968567,298.171204 
	C183.574356,298.171204 180.942307,298.171204 177.842133,298.123413 
	C175.108963,298.075623 172.843918,298.075623 170.015182,298.075623 
	C170.015182,301.444061 170.015182,304.214172 169.967377,307.026672 
	C169.919556,307.069061 169.822098,307.151672 169.822098,307.151672 
M254.537689,298.125580 
	C253.884369,298.090607 253.228653,298.080139 252.578125,298.016632 
	C249.118698,297.678864 246.770782,297.927948 246.814407,302.700653 
	C246.857635,307.427490 249.438812,307.125732 252.490768,306.978638 
	C253.470078,306.931458 254.447266,306.840027 256.276794,306.851166 
	C258.680054,306.851166 261.083313,306.851166 263.633575,306.851166 
	C263.633575,303.752045 263.633575,301.096710 263.633575,298.280518 
	C260.682465,298.280518 258.090668,298.280518 254.537689,298.125580 
z"/>
<path fill="#1B2735" opacity="1.000000" stroke="none" 
	d="
M332.500366,314.930176 
	C334.963348,315.009125 337.426331,315.088104 340.343079,315.197876 
	C340.796814,318.004547 340.796814,320.780457 340.796814,323.797394 
	C344.005585,323.949951 346.601318,324.073334 349.419830,324.207336 
	C349.419830,326.887787 349.419830,329.296967 349.419830,332.042236 
	C295.248566,332.042236 241.330246,332.042236 186.902481,332.042236 
	C186.902481,329.570770 186.902481,327.286560 186.932526,324.520508 
	C186.962570,324.038696 187.017029,323.982697 187.470703,323.980835 
	C190.365631,323.937683 192.806885,323.896393 195.685303,323.901947 
	C198.675995,323.948792 201.229538,323.948792 203.801117,323.948792 
	C203.801117,320.515076 203.801117,317.871246 204.258011,315.165344 
	C207.135284,315.083893 209.555679,315.064514 211.992767,315.459106 
	C212.481888,318.442383 212.954300,321.011627 213.489182,323.920563 
	C216.216995,323.920563 218.680603,323.920563 221.575104,323.953125 
	C224.577621,323.932739 227.149246,323.879791 230.189575,323.877747 
	C233.173767,323.916321 235.689270,323.903961 238.659668,323.922668 
	C255.812073,323.953705 272.509613,323.953705 289.212097,323.953705 
	C289.535431,320.522736 289.797943,317.737274 290.060425,314.951843 
	C290.060425,314.951843 290.014221,315.001770 290.435394,315.060364 
	C293.247925,315.078308 295.639282,315.037720 298.073608,315.447449 
	C298.116608,318.478699 298.116608,321.059601 298.116608,323.760864 
	C301.319946,323.760864 303.873627,323.760864 306.796509,323.760864 
	C306.796509,320.750366 306.796509,317.991547 307.248260,315.170593 
	C310.060974,315.136078 312.421906,315.163727 314.856323,315.628479 
	C315.166321,324.062561 315.166321,324.062927 323.149292,323.968323 
	C323.474335,323.964478 323.799133,323.941528 324.565887,323.960999 
	C327.422668,323.994476 329.837585,323.994476 332.500366,323.994476 
	C332.500366,320.534363 332.500366,317.732239 332.500366,314.930176 
z"/>
<path fill="#010103" opacity="1.000000" stroke="none" 
	d="
M178.138901,272.798218 
	C192.103043,272.691833 206.067017,272.545837 220.031357,272.491516 
	C231.344955,272.447540 242.658966,272.513763 254.473724,273.035583 
	C254.973038,275.985229 254.971436,278.430359 254.969833,280.875519 
	C229.632828,280.917053 204.295807,280.958588 178.488922,280.511353 
	C178.058990,277.614441 178.098953,275.206299 178.138901,272.798218 
z"/>
<path fill="#48626D" opacity="1.000000" stroke="none" 
	d="
M151.834656,272.621277 
	C157.647705,272.519135 163.460770,272.416962 169.630249,272.870331 
	C170.002869,275.927338 170.019043,278.428833 170.035217,280.930298 
	C164.322754,280.985626 158.610275,281.040955 152.500214,280.593750 
	C152.013290,277.601257 151.923965,275.111267 151.834656,272.621277 
z"/>
<path fill="#30474F" opacity="1.000000" stroke="none" 
	d="
M263.925049,272.817871 
	C269.343475,272.717010 274.761871,272.616180 280.607849,273.047119 
	C281.034271,276.001587 281.033173,278.424225 281.032074,280.846863 
	C275.653046,280.894989 270.274017,280.943146 264.436462,280.502441 
	C263.960297,277.615051 263.942657,275.216461 263.925049,272.817871 
z"/>
<path fill="#263441" opacity="1.000000" stroke="none" 
	d="
M323.335938,298.215210 
	C323.842255,300.868958 323.913849,303.494171 323.985687,306.536072 
	C323.985962,306.952698 324.048950,306.968658 323.595459,306.935425 
	C320.415741,306.920227 317.689514,306.938293 314.956665,306.985046 
	C314.950012,307.013794 314.997040,307.049316 315.054932,306.597412 
	C315.084534,303.413727 315.056274,300.681946 315.028015,297.950165 
	C315.028015,297.950165 315.041077,298.005615 315.017212,298.020325 
	C317.629303,298.085571 320.265259,298.136108 323.335938,298.215210 
z"/>
<path fill="#1B2632" opacity="1.000000" stroke="none" 
	d="
M263.493164,272.677490 
	C263.942657,275.216461 263.960297,277.615051 263.971985,280.427124 
	C261.264526,280.902222 258.563019,280.963806 255.415649,280.950470 
	C254.971436,278.430359 254.973038,275.985229 254.918503,273.148499 
	C257.595337,272.683655 260.328278,272.610413 263.493164,272.677490 
z"/>
<path fill="#1B2735" opacity="1.000000" stroke="none" 
	d="
M186.935516,324.066895 
	C184.163940,324.095062 181.419403,324.095062 178.019226,324.095062 
	C178.019226,321.077118 178.019226,318.528809 177.993942,315.505432 
	C177.968658,315.030304 178.021744,314.976776 178.468384,314.993286 
	C181.593521,315.015961 184.272003,315.022156 186.965195,315.010101 
	C186.979889,314.991852 186.977386,315.038208 186.971344,315.484924 
	C186.982529,318.615356 186.999771,321.299011 187.017029,323.982697 
	C187.017029,323.982697 186.962570,324.038696 186.935516,324.066895 
z"/>
<path fill="#1B2632" opacity="1.000000" stroke="none" 
	d="
M281.476135,280.920410 
	C281.033173,278.424225 281.034271,276.001587 281.057648,273.191010 
	C283.806580,272.683777 286.533203,272.564453 289.695160,272.594910 
	C290.079346,275.178497 290.028229,277.612274 290.002075,280.462646 
	C287.324768,280.917450 284.622467,280.955688 281.476135,280.920410 
z"/>
<path fill="#1B2735" opacity="1.000000" stroke="none" 
	d="
M151.396912,272.553040 
	C151.923965,275.111267 152.013290,277.601257 152.036057,280.514160 
	C149.593597,280.959045 147.217682,280.980957 144.402054,280.925903 
	C143.955597,278.422974 143.948853,275.996979 143.896530,273.181854 
	C146.220367,272.690063 148.589752,272.587402 151.396912,272.553040 
z"/>
<path fill="#1B2632" opacity="1.000000" stroke="none" 
	d="
M170.477737,280.969727 
	C170.019043,278.428833 170.002869,275.927338 170.082596,273.032379 
	C172.550415,272.589752 174.922333,272.540619 177.716568,272.644836 
	C178.098953,275.206299 178.058990,277.614441 178.028015,280.435913 
	C175.664734,280.902527 173.292496,280.955811 170.477737,280.969727 
z"/>
<path fill="#1B2734" opacity="1.000000" stroke="none" 
	d="
M177.944214,315.058990 
	C175.366806,315.087677 172.813812,315.087677 169.749741,315.087677 
	C169.749741,312.473663 169.749741,310.258667 169.785919,307.597687 
	C169.822098,307.151672 169.919556,307.069061 170.416840,307.025879 
	C173.329697,306.944244 175.745285,306.905853 178.092392,306.918304 
	C178.023911,306.969147 178.132904,306.837921 178.092850,307.292053 
	C178.042450,310.156403 178.032104,312.566589 178.021744,314.976776 
	C178.021744,314.976776 177.968658,315.030304 177.944214,315.058990 
z"/>
<path fill="#F6FAFC" opacity="1.000000" stroke="none" 
	d="
M169.897186,326.605164 
	C168.933685,326.211914 167.999390,325.452637 167.035339,324.361542 
	C167.979187,324.766205 168.952789,325.502625 169.897186,326.605164 
z"/>
<path fill="#F6FAFC" opacity="1.000000" stroke="none" 
	d="
M169.772278,331.549377 
	C169.605576,331.321259 169.554550,330.814575 169.695267,330.186646 
	C169.887344,330.467163 169.887650,330.868988 169.772278,331.549377 
z"/>
<path fill="#F6FAFC" opacity="1.000000" stroke="none" 
	d="
M162.761261,323.994293 
	C162.741409,324.120178 162.476959,324.245636 162.121872,324.212830 
	C162.031219,324.054565 162.516647,323.993866 162.761261,323.994293 
z"/>
<path fill="#ECF2F4" opacity="1.000000" stroke="none" 
	d="
M186.832687,341.766602 
	C186.612930,341.880768 186.378922,341.700073 186.105225,341.242981 
	C186.335922,341.094910 186.586914,341.263275 186.832687,341.766602 
z"/>
<path fill="#F6FAFC" opacity="1.000000" stroke="none" 
	d="
M177.961517,339.743713 
	C177.774261,339.821564 177.600418,339.666229 177.473999,339.478912 
	C177.445526,339.436737 177.582306,339.282990 177.800674,339.093750 
	C177.958344,339.006927 177.992081,339.498993 177.961517,339.743713 
z"/>
<path fill="#192E3F" opacity="1.000000" stroke="none" 
	d="
M298.131866,255.102707 
	C298.131866,257.890198 298.131866,260.677704 298.131866,263.697327 
	C243.849960,263.697327 189.955658,263.697327 135.703156,263.697327 
	C135.358917,261.011292 135.011276,258.298645 134.335236,254.859711 
	C134.004959,221.808807 134.090683,189.483688 133.906326,157.160110 
	C133.878784,152.332611 135.359146,150.880646 140.171753,150.905167 
	C174.661606,151.080872 209.153229,151.109009 243.643280,150.955856 
	C262.094971,150.873947 280.544647,150.339020 299.005920,150.430756 
	C299.343628,153.304245 299.950867,155.755020 299.955383,158.206894 
	C300.014862,190.500183 299.989410,222.793655 299.985229,255.087067 
	C299.560120,255.188721 299.135010,255.290390 298.372223,254.784790 
	C298.031067,222.525345 297.945709,190.872726 298.113281,159.221451 
	C298.138092,154.531555 296.909058,152.860641 291.966461,152.876434 
	C241.823029,153.036621 191.678619,153.047073 141.535431,152.854645 
	C136.656296,152.835938 135.816391,154.532547 135.838684,158.866135 
	C135.992905,188.851715 136.050079,218.839630 135.791275,248.823807 
	C135.746826,253.974075 137.194992,255.151489 142.204834,255.135880 
	C194.180038,254.973877 246.156067,255.074814 298.131866,255.102707 
z"/>
<path fill="#1B2633" opacity="1.000000" stroke="none" 
	d="
M298.995239,150.008545 
	C280.544647,150.339020 262.094971,150.873947 243.643280,150.955856 
	C209.153229,151.109009 174.661606,151.080872 140.171753,150.905167 
	C135.359146,150.880646 133.878784,152.332611 133.906326,157.160110 
	C134.090683,189.483688 134.004959,221.808807 134.011368,254.607971 
	C132.293213,255.143799 130.570541,255.205093 128.328613,254.941055 
	C127.620201,254.327133 127.364174,254.121979 127.041275,254.000275 
	C126.992241,217.974365 126.943214,181.948456 127.180344,145.372940 
	C127.710594,144.660416 127.887451,144.442856 127.997086,144.170654 
	C130.379425,144.120209 132.761780,144.069778 135.808716,144.317657 
	C137.641876,144.463486 138.810440,144.310974 139.979004,144.158447 
	C161.754410,144.104416 183.529800,144.018921 205.305222,144.003876 
	C236.227921,143.982513 267.150635,144.012955 298.536682,144.512695 
	C298.998413,146.672272 298.996826,148.340408 298.995239,150.008545 
z"/>
<path fill="#1B2632" opacity="1.000000" stroke="none" 
	d="
M299.005920,150.430756 
	C298.996826,148.340408 298.998413,146.672272 298.999878,144.588181 
	C301.054779,144.127411 303.109833,144.082596 305.649658,144.297455 
	C306.246552,144.749908 306.406891,144.885834 306.615417,144.964859 
	C306.689178,165.050262 306.784058,185.135620 306.829651,205.221085 
	C306.863586,220.165207 306.833679,235.109482 306.832245,250.053680 
	C306.832092,251.672272 306.832214,253.290878 306.832214,255.277603 
	C304.484680,255.277603 302.680328,255.277603 300.430603,255.182343 
	C299.989410,222.793655 300.014862,190.500183 299.955383,158.206894 
	C299.950867,155.755020 299.343628,153.304245 299.005920,150.430756 
z"/>
<path fill="#192E3F" opacity="1.000000" stroke="none" 
	d="
M139.588379,144.081329 
	C138.810440,144.310974 137.641876,144.463486 136.250702,144.387268 
	C137.084656,144.107086 138.141205,144.055634 139.588379,144.081329 
z"/>
<path fill="#192E3F" opacity="1.000000" stroke="none" 
	d="
M127.010185,254.309784 
	C127.364174,254.121979 127.620201,254.327133 127.907181,254.845215 
	C127.663025,254.922913 127.321060,254.771118 127.010185,254.309784 
z"/>
<path fill="#263441" opacity="1.000000" stroke="none" 
	d="
M315.180847,138.224258 
	C315.381958,138.250992 315.490753,138.550476 315.437347,138.945892 
	C315.212952,138.860214 315.150757,138.678604 315.180847,138.224258 
z"/>
<path fill="#192E3F" opacity="1.000000" stroke="none" 
	d="
M127.724930,144.135559 
	C127.887451,144.442856 127.710594,144.660416 127.273117,144.912292 
	C127.204071,144.700974 127.328430,144.400711 127.724930,144.135559 
z"/>
<path fill="#192E3F" opacity="1.000000" stroke="none" 
	d="
M306.673187,144.757385 
	C306.406891,144.885834 306.246552,144.749908 306.077087,144.407593 
	C306.355042,144.116119 306.592072,144.213379 306.673187,144.757385 
z"/>
<path fill="#A9CCDC" opacity="1.000000" stroke="none" 
	d="
M332.514038,314.954102 
	C332.500366,317.732239 332.500366,320.534363 332.500366,323.994476 
	C329.837585,323.994476 327.422668,323.994476 324.500366,323.518585 
	C323.986969,320.352234 323.980927,317.661774 324.442383,315.020447 
	C327.456024,315.056122 330.002167,315.042633 332.548340,315.029175 
	C332.548340,315.029175 332.527679,314.978058 332.514038,314.954102 
z"/>
<path fill="#1B2734" opacity="1.000000" stroke="none" 
	d="
M332.486176,314.584808 
	C330.002167,315.042633 327.456024,315.056122 324.451843,315.048218 
	C323.993805,315.026855 324.051788,315.017181 324.019409,314.571472 
	C324.007660,311.740082 324.028320,309.354370 324.048950,306.968658 
	C324.048950,306.968658 323.985962,306.952698 323.966797,306.978333 
	C326.345215,306.969788 328.742798,306.935608 331.588654,306.932983 
	C332.165955,309.356506 332.294983,311.748505 332.486176,314.584808 
z"/>
<path fill="#AFD6E8" opacity="1.000000" stroke="none" 
	d="
M289.590759,315.010925 
	C289.797943,317.737274 289.535431,320.522736 289.212097,323.953705 
	C272.509613,323.953705 255.812073,323.953705 238.622467,323.490479 
	C238.115021,320.446655 238.099640,317.866028 238.084259,315.285431 
	C255.096542,315.213593 272.108826,315.141785 289.590759,315.010925 
z"/>
<path fill="#30474F" opacity="1.000000" stroke="none" 
	d="
M238.065674,314.815918 
	C238.099640,317.866028 238.115021,320.446655 238.167587,323.459412 
	C235.689270,323.903961 233.173767,323.916321 230.210800,323.453979 
	C229.814697,320.444275 229.866058,317.909241 229.934891,314.910828 
	C229.898666,312.052521 229.844971,309.657562 229.868591,307.172913 
	C229.945892,307.083191 230.090759,306.895844 230.526001,306.900085 
	C233.287277,306.897705 235.613342,306.891052 237.939392,306.884399 
	C237.975281,309.371735 238.011169,311.859070 238.065674,314.815918 
z"/>
<path fill="#A9CCDC" opacity="1.000000" stroke="none" 
	d="
M204.220078,298.130402 
	C206.808609,298.130402 209.397125,298.130402 211.339722,298.130402 
	C214.607941,300.675354 209.938675,305.642975 215.406830,307.170105 
	C214.559082,308.344025 213.466293,309.185852 212.372559,309.583160 
	C210.616699,304.735565 206.776001,307.936066 204.025238,306.438293 
	C204.036758,303.380493 204.128418,300.755432 204.220078,298.130402 
z"/>
<path fill="#344B54" opacity="1.000000" stroke="none" 
	d="
M298.010925,306.955627 
	C298.004761,306.627014 297.983643,306.297913 297.994507,305.969849 
	C298.284302,297.221161 296.398315,298.045837 306.660706,298.524902 
	C307.050568,301.622650 307.079773,304.245453 307.035889,306.964172 
	C306.962799,307.060059 306.806610,307.243774 306.381409,307.158508 
	C303.320068,307.043793 300.683899,307.014374 298.027130,306.992065 
	C298.006500,306.999176 298.010925,306.955627 298.010925,306.955627 
z"/>
<path fill="#A9CCDC" opacity="1.000000" stroke="none" 
	d="
M255.498871,298.280518 
	C258.090668,298.280518 260.682465,298.280518 263.633575,298.280518 
	C263.633575,301.096710 263.633575,303.752045 263.633575,306.851166 
	C261.083313,306.851166 258.680054,306.851166 255.800323,306.386658 
	C255.382202,303.374939 255.440536,300.827728 255.498871,298.280518 
z"/>
<path fill="#344B54" opacity="1.000000" stroke="none" 
	d="
M220.940002,307.084076 
	C220.940002,304.302399 220.940002,301.520752 220.940002,298.033142 
	C224.104797,298.033142 226.689117,298.033142 229.603333,298.504364 
	C229.985748,301.615662 230.038254,304.255768 230.090759,306.895844 
	C230.090759,306.895844 229.945892,307.083191 229.441956,307.083069 
	C226.261810,307.068024 223.585587,307.053131 220.938568,307.034973 
	C220.967773,307.031677 220.940002,307.084076 220.940002,307.084076 
z"/>
<path fill="#344B54" opacity="1.000000" stroke="none" 
	d="
M203.752380,298.085266 
	C204.128418,300.755432 204.036758,303.380493 203.953934,306.531830 
	C203.962769,307.058136 203.810501,307.237457 203.384766,307.153656 
	C200.322083,307.041412 197.685104,307.012970 195.028046,306.992188 
	C195.007965,306.999817 195.010788,306.956757 195.010788,306.956757 
	C195.007523,306.628418 194.990891,306.299561 195.002914,305.971771 
	C195.321320,297.289795 193.276459,298.047760 203.752380,298.085266 
z"/>
<path fill="#A9CCDC" opacity="1.000000" stroke="none" 
	d="
M178.310272,298.171204 
	C180.942307,298.171204 183.574356,298.171204 186.968567,298.171204 
	C186.968567,300.973724 186.968567,303.542603 186.973419,306.536133 
	C186.978271,306.960754 187.046707,306.973480 186.597580,306.962646 
	C183.476608,306.913849 180.804749,306.875885 178.132904,306.837891 
	C178.132904,306.837921 178.023911,306.969147 178.059082,306.483887 
	C178.166260,303.389496 178.238266,300.780334 178.310272,298.171204 
z"/>
<path fill="#AFD6E8" opacity="1.000000" stroke="none" 
	d="
M290.035706,306.916992 
	C287.640900,306.897888 285.246063,306.878784 282.290344,306.684723 
	C281.538788,306.322876 281.325226,306.167480 281.061890,305.603149 
	C281.120178,302.827698 281.205261,300.492615 281.290375,298.157532 
	C283.854553,298.157532 286.418732,298.157532 289.384644,298.157532 
	C289.513550,301.052704 289.626465,303.589325 289.860901,306.538635 
	C289.982361,306.951324 290.035706,306.916992 290.035706,306.916992 
z"/>
<path fill="#30474F" opacity="1.000000" stroke="none" 
	d="
M280.835449,298.115356 
	C281.205261,300.492615 281.120178,302.827698 281.009277,305.835693 
	C280.983459,306.508575 281.032898,306.985291 281.032898,306.985291 
	C278.571808,306.985291 276.110687,306.985291 273.810852,306.985291 
	C271.431946,297.916260 271.440399,297.905731 280.835449,298.115356 
z"/>
<path fill="#ADD2E3" opacity="1.000000" stroke="none" 
	d="
M230.526001,306.900085 
	C230.038254,304.255768 229.985748,301.615662 230.068527,298.553711 
	C232.606247,298.131866 235.008682,298.131866 238.070145,298.131866 
	C238.070145,300.975128 238.070145,303.486755 238.004761,306.441406 
	C235.613342,306.891052 233.287277,306.897705 230.526001,306.900085 
z"/>
<path fill="#30474F" opacity="1.000000" stroke="none" 
	d="
M255.018280,298.203064 
	C255.440536,300.827728 255.382202,303.374939 255.374634,306.345459 
	C254.447266,306.840027 253.470078,306.931458 252.490768,306.978638 
	C249.438812,307.125732 246.857635,307.427490 246.814407,302.700653 
	C246.770782,297.927948 249.118698,297.678864 252.578125,298.016632 
	C253.228653,298.080139 253.884369,298.090607 255.018280,298.203064 
z"/>
<path fill="#ADD2E3" opacity="1.000000" stroke="none" 
	d="
M307.108978,306.868286 
	C307.079773,304.245453 307.050568,301.622650 307.127258,298.575012 
	C309.544647,298.134979 311.856079,298.119781 314.597778,298.027344 
	C315.056274,300.681946 315.084534,303.413727 314.621033,306.540863 
	C311.789124,306.913574 309.449066,306.890930 307.108978,306.868286 
z"/>
<path fill="#30474F" opacity="1.000000" stroke="none" 
	d="
M177.842133,298.123413 
	C178.238266,300.780334 178.166260,303.389496 178.127563,306.433044 
	C175.745285,306.905853 173.329697,306.944244 170.464645,306.983490 
	C170.015182,304.214172 170.015182,301.444061 170.015182,298.075623 
	C172.843918,298.075623 175.108963,298.075623 177.842133,298.123413 
z"/>
<path fill="#B5DDED" opacity="1.000000" stroke="none" 
	d="
M186.958588,306.989471 
	C189.332108,306.972137 191.725311,306.926086 194.564651,306.918396 
	C195.010788,306.956757 195.007965,306.999817 195.101959,307.434998 
	C195.111755,310.258270 195.027573,312.646393 194.980682,315.031708 
	C195.017960,315.028900 195.022507,314.954254 194.579132,315.012634 
	C191.749634,315.060059 189.363510,315.049133 186.977386,315.038208 
	C186.977386,315.038208 186.979889,314.991852 186.953186,314.562592 
	C186.966568,311.746704 187.006638,309.360107 187.046707,306.973480 
	C187.046707,306.973480 186.978271,306.960754 186.958588,306.989471 
z"/>
<path fill="#B5DDED" opacity="1.000000" stroke="none" 
	d="
M212.373520,310.027679 
	C213.466293,309.185852 214.559082,308.344025 215.824738,307.263702 
	C217.375092,306.985809 218.752563,306.946350 220.535019,306.995483 
	C220.940002,307.084076 220.967773,307.031677 220.974304,307.476501 
	C220.972534,310.291565 220.964233,312.661835 220.992691,315.028381 
	C221.029449,315.024689 221.033768,314.950897 220.603073,315.017944 
	C217.462967,314.686981 214.753540,314.289001 212.028519,313.498535 
	C212.133102,312.079895 212.253311,311.053802 212.373520,310.027679 
z"/>
<path fill="#B5DDED" opacity="1.000000" stroke="none" 
	d="
M298.030640,314.997101 
	C295.639282,315.037720 293.247925,315.078308 290.409637,315.082581 
	C289.875641,312.622833 289.788544,310.199402 289.868591,307.346497 
	C290.035706,306.916992 289.982361,306.951324 289.962891,306.975800 
	C292.335388,306.957764 294.727356,306.915253 297.565125,306.914185 
	C298.010925,306.955627 298.006500,306.999176 298.091919,307.435791 
	C298.100708,310.258423 298.024078,312.644501 297.974548,315.037689 
	C298.001678,315.044830 298.030640,314.997101 298.030640,314.997101 
z"/>
<path fill="#4B84AA" opacity="1.000000" stroke="none" 
	d="
M281.272644,307.005981 
	C281.032898,306.985291 280.983459,306.508575 281.036072,306.276062 
	C281.325226,306.167480 281.538788,306.322876 281.841675,306.672424 
	C281.953888,306.835083 281.512390,307.026672 281.272644,307.005981 
z"/>
<path fill="#344B54" opacity="1.000000" stroke="none" 
	d="
M323.984344,314.999084 
	C323.980927,317.661774 323.986969,320.352234 324.058533,323.485107 
	C323.799133,323.941528 323.474335,323.964478 323.149292,323.968323 
	C315.166321,324.062927 315.166321,324.062561 314.950073,315.539734 
	C314.970337,315.013855 315.166687,314.851379 315.600159,314.938599 
	C318.706360,315.022919 321.379059,315.020050 324.051788,315.017181 
	C324.051788,315.017181 323.993805,315.026855 323.984344,314.999084 
z"/>
<path fill="#A9CCDC" opacity="1.000000" stroke="none" 
	d="
M306.796509,315.232727 
	C306.796509,317.991547 306.796509,320.750366 306.796509,323.760864 
	C303.873627,323.760864 301.319946,323.760864 298.116608,323.760864 
	C298.116608,321.059601 298.116608,318.478699 298.073608,315.447449 
	C298.030640,314.997101 298.001678,315.044830 298.425232,315.047241 
	C301.525330,315.108337 304.201874,315.167023 306.855957,315.201416 
	C306.833496,315.177094 306.796509,315.232727 306.796509,315.232727 
z"/>
<path fill="#ADD2E3" opacity="1.000000" stroke="none" 
	d="
M229.917419,315.374176 
	C229.866058,317.909241 229.814697,320.444275 229.742096,323.403076 
	C227.149246,323.879791 224.577621,323.932739 221.516479,323.510071 
	C221.029221,320.339905 221.031494,317.645416 221.033768,314.950897 
	C221.033768,314.950897 221.029449,315.024689 221.442657,315.057281 
	C224.543045,315.184631 227.230225,315.279419 229.917419,315.374176 
z"/>
<path fill="#A9CCDC" opacity="1.000000" stroke="none" 
	d="
M203.801117,315.227417 
	C203.801117,317.871246 203.801117,320.515076 203.801117,323.948792 
	C201.229538,323.948792 198.675995,323.948792 195.649460,323.461853 
	C195.125153,320.301392 195.073822,317.627808 195.022491,314.954254 
	C195.022507,314.954254 195.017960,315.028900 195.431946,315.027374 
	C198.523987,315.092224 201.202042,315.158600 203.859802,315.197632 
	C203.839493,315.170258 203.801117,315.227417 203.801117,315.227417 
z"/>
<path fill="#344B54" opacity="1.000000" stroke="none" 
	d="
M220.603073,315.017944 
	C221.031494,317.645416 221.029221,320.339905 221.085571,323.477478 
	C218.680603,323.920563 216.216995,323.920563 213.489182,323.920563 
	C212.954300,321.011627 212.481888,318.442383 212.009155,315.170319 
	C212.020615,314.275330 212.032364,314.083191 212.044128,313.891022 
	C214.753540,314.289001 217.462967,314.686981 220.603073,315.017944 
z"/>
<path fill="#344B54" opacity="1.000000" stroke="none" 
	d="
M194.579132,315.012634 
	C195.073822,317.627808 195.125153,320.301392 195.212311,323.415039 
	C192.806885,323.896393 190.365631,323.937683 187.470703,323.980835 
	C186.999771,321.299011 186.982529,318.615356 186.971344,315.484924 
	C189.363510,315.049133 191.749634,315.060059 194.579132,315.012634 
z"/>
<path fill="#30474F" opacity="1.000000" stroke="none" 
	d="
M307.035889,306.964172 
	C309.449066,306.890930 311.789124,306.913574 314.563110,306.992767 
	C314.997040,307.049316 314.950012,307.013794 315.010193,307.423187 
	C315.102509,310.172180 315.134583,312.511780 315.166687,314.851379 
	C315.166687,314.851379 314.970337,315.013855 314.876587,315.102600 
	C312.421906,315.163727 310.060974,315.136078 307.248260,315.170593 
	C306.796509,315.232727 306.833496,315.177094 306.892578,314.743927 
	C306.903290,311.955109 306.854950,309.599426 306.806610,307.243774 
	C306.806610,307.243774 306.962799,307.060059 307.035889,306.964172 
z"/>
<path fill="#30474F" opacity="1.000000" stroke="none" 
	d="
M212.028519,313.498535 
	C212.032364,314.083191 212.020615,314.275330 211.992462,314.756287 
	C209.555679,315.064514 207.135284,315.083893 204.258011,315.165344 
	C203.801117,315.227417 203.839493,315.170258 203.895203,314.740021 
	C203.904114,311.952332 203.857315,309.594910 203.810501,307.237457 
	C203.810501,307.237457 203.962769,307.058136 204.034088,306.964600 
	C206.776001,307.936066 210.616699,304.735565 212.372559,309.583160 
	C212.253311,311.053802 212.133102,312.079895 212.028519,313.498535 
z"/>
<path fill="#AFD7E9" opacity="1.000000" stroke="none" 
	d="
M315.600159,314.938599 
	C315.134583,312.511780 315.102509,310.172180 315.016846,307.394470 
	C317.689514,306.938293 320.415741,306.920227 323.595459,306.935425 
	C324.028320,309.354370 324.007660,311.740082 324.019409,314.571472 
	C321.379059,315.020050 318.706360,315.022919 315.600159,314.938599 
z"/>
<path fill="#30474F" opacity="1.000000" stroke="none" 
	d="
M186.597580,306.962646 
	C187.006638,309.360107 186.966568,311.746704 186.938507,314.580841 
	C184.272003,315.022156 181.593521,315.015961 178.468384,314.993286 
	C178.032104,312.566589 178.042450,310.156403 178.092850,307.292053 
	C180.804749,306.875885 183.476608,306.913849 186.597580,306.962646 
z"/>
<path fill="#015784" opacity="1.000000" stroke="none" 
	d="
M298.072083,255.059509 
	C246.156067,255.074814 194.180038,254.973877 142.204834,255.135880 
	C137.194992,255.151489 135.746826,253.974075 135.791275,248.823807 
	C136.050079,218.839630 135.992905,188.851715 135.838684,158.866135 
	C135.816391,154.532547 136.656296,152.835938 141.535431,152.854645 
	C191.678619,153.047073 241.823029,153.036621 291.966461,152.876434 
	C296.909058,152.860641 298.138092,154.531555 298.113281,159.221451 
	C297.945709,190.872726 298.031067,222.525345 298.067444,254.656189 
	C298.100311,255.134842 298.012299,255.016312 298.072083,255.059509 
M255.132507,175.184494 
	C255.820099,176.122879 256.471161,177.840134 257.201141,177.874359 
	C262.266266,178.111908 267.347809,177.999649 272.475433,177.999649 
	C272.475433,171.986252 272.475433,166.758606 272.475433,161.431564 
	C266.576141,161.431564 261.048859,161.431564 255.122971,161.431564 
	C255.122971,165.981598 255.122971,170.114838 255.132507,175.184494 
M272.803223,189.630142 
	C271.134216,184.177322 267.304688,187.949783 264.305878,187.172897 
	C264.305878,190.205353 264.305878,192.736237 264.305878,195.198166 
	C272.053406,196.444107 272.583221,196.134964 272.803223,189.630142 
z"/>
<path fill="#1B2735" opacity="1.000000" stroke="none" 
	d="
M229.934891,314.910828 
	C227.230225,315.279419 224.543045,315.184631 221.405884,315.060974 
	C220.964233,312.661835 220.972534,310.291565 220.945099,307.479767 
	C223.585587,307.053131 226.261810,307.068024 229.364655,307.172760 
	C229.844971,309.657562 229.898666,312.052521 229.934891,314.910828 
z"/>
<path fill="#1B2734" opacity="1.000000" stroke="none" 
	d="
M306.381409,307.158508 
	C306.854950,309.599426 306.903290,311.955109 306.915039,314.768250 
	C304.201874,315.167023 301.525330,315.108337 298.398132,315.040100 
	C298.024078,312.644501 298.100708,310.258423 298.112549,307.428650 
	C300.683899,307.014374 303.320068,307.043793 306.381409,307.158508 
z"/>
<path fill="#1B2734" opacity="1.000000" stroke="none" 
	d="
M203.384766,307.153656 
	C203.857315,309.594910 203.904114,311.952332 203.915497,314.767395 
	C201.202042,315.158600 198.523987,315.092224 195.394653,315.030182 
	C195.027573,312.646393 195.111755,310.258270 195.122040,307.427338 
	C197.685104,307.012970 200.322083,307.041412 203.384766,307.153656 
z"/>
<path fill="#2F9DEA" opacity="1.000000" stroke="none" 
	d="
M255.127747,174.716293 
	C255.122971,170.114838 255.122971,165.981598 255.122971,161.431564 
	C261.048859,161.431564 266.576141,161.431564 272.475433,161.431564 
	C272.475433,166.758606 272.475433,171.986252 272.475433,177.999649 
	C267.347809,177.999649 262.266266,178.111908 257.201141,177.874359 
	C256.471161,177.840134 255.820099,176.122879 255.127747,174.716293 
z"/>
<path fill="#2F9DEA" opacity="1.000000" stroke="none" 
	d="
M272.814087,190.066162 
	C272.583221,196.134964 272.053406,196.444107 264.305878,195.198166 
	C264.305878,192.736237 264.305878,190.205353 264.305878,187.172897 
	C267.304688,187.949783 271.134216,184.177322 272.814087,190.066162 
z"/>
</svg>